# xmcd
#
# Track frame offsets:
#	150
#	8558
#	20473
#	30868
#	46725
#	55549
#
# Disc length: 893 seconds
#
# Revision: 2
# Processed by: cddbd v1.5.2PL0 Copyright (c) Steve Scherf et al.
# Submitted via: dBpowerAMP V4.0
#
DISCID=2f037b06
DTITLE=RT and the 44s - Songs Momma Don't Like
DYEAR=2012
DGENRE=Blues
TTITLE0=Two Finger Slide
TTITLE1=Speakin' in Tongues
TTITLE2=Marijuana
TTITLE3=Walkin'
TTITLE4=Cryin' in my Vaseline
TTITLE5=Life Ain't Fair
EXTD=Local group from Los Angeles, CA
EXTT0=
EXTT1=
EXTT2=
EXTT3=
EXTT4=
EXTT5=
PLAYORDER=
